<mxfile host="app.diagrams.net" modified="2023-08-03T14:39:21.458Z" agent="Mozilla/5.0 (Macintosh; Intel Mac OS X 10_15_7) AppleWebKit/537.36 (KHTML, like Gecko) Chrome/115.0.0.0 Safari/537.36" version="21.6.6" etag="9k3dX56JXGmPfeeBSmfV" type="github">
  <diagram name="PÃ¡gina-1" id="5tMX4Kk6VDmmI28aSQju">
    <mxGraphModel>
      <root>
        <mxCell id="0" />
        <mxCell id="1" parent="0" />
      </root>
    </mxGraphModel>
  </diagram>
</mxfile>
